<?xml version="1.0" encoding="UTF-8" standalone="no"?>
<!-- Created with Inkscape (http://www.inkscape.org/) -->

<svg
   xmlns:dc="http://purl.org/dc/elements/1.1/"
   xmlns:cc="http://creativecommons.org/ns#"
   xmlns:rdf="http://www.w3.org/1999/02/22-rdf-syntax-ns#"
   xmlns:svg="http://www.w3.org/2000/svg"
   xmlns="http://www.w3.org/2000/svg"
   xmlns:inkscape="http://www.inkscape.org/namespaces/inkscape"
   version="1.1"
   width="200"
   height="200"
   id="svg2">
  <defs
     id="defs4">
    <inkscape:path-effect
       effect="skeletal"
       id="path-effect4018" />
    <inkscape:path-effect
       effect="bend_path"
       id="path-effect4014" />
    <inkscape:path-effect
       effect="envelope"
       id="path-effect4012" />
  </defs>
  <metadata
     id="metadata7">
    <rdf:RDF>
      <cc:Work
         rdf:about="">
        <dc:format>image/svg+xml</dc:format>
        <dc:type
           rdf:resource="http://purl.org/dc/dcmitype/StillImage" />
        <dc:title></dc:title>
      </cc:Work>
    </rdf:RDF>
  </metadata>
  <path
     d="M 82.761393,35.603891 C 46.335536,51.259493 43.623738,88.188937 43.623738,88.188937"
     id="path3818"
     style="fill:none;stroke:#8ab8d8;stroke-width:1.45633924;stroke-linecap:butt;stroke-linejoin:miter;stroke-miterlimit:4;stroke-opacity:1;stroke-dasharray:none" />
  <path
     d="M 105.44725,7.4427088 86.162975,6.9376898 c 0,0 -1.952367,0.9105875 -2.410538,1.7675682 -1.542597,12.175564 -0.557981,21.041994 -0.803509,31.563719 -0.294608,12.624954 -0.803512,37.876458 -0.803512,37.876458 l -1.339187,12.877996 c 0,0 -2.709425,3.676584 -4.821069,4.292666 -3.281114,0.95728 -10.177815,-1.515057 -10.177815,-1.515057 0,0 -8.88277,-4.060871 -13.659697,-5.050196 -2.969917,-0.615086 -6.190099,-1.31651 -9.106463,-0.505019 -1.592762,0.443193 -3.006635,1.535465 -4.01756,2.777606 -2.099255,2.579394 -2.854494,5.950631 -3.749721,9.090349 -1.05549,3.70179 -1.431051,7.55265 -1.87486,11.36294 -0.60546,5.19814 -1.53304,10.44437 -1.071348,15.6556 0.129782,1.46487 1.071348,4.29267 1.071348,4.29267 0,0 5.196539,0.7514 7.76728,1.26255 2.161103,0.4297 4.799849,0.10817 6.428091,1.51506 2.019011,1.74453 3.003016,4.75901 2.678373,7.32278 -1.59362,12.58507 -7.56462,24.2138 -9.909976,36.61391 -0.456934,2.41585 -0.803513,7.32278 -0.803513,7.32278 l 18.212931,3.78765 c 0,0 7.477367,-30.34749 13.124023,-44.94673 1.24538,-3.21989 1.899897,-7.00005 4.553233,-9.34286 2.371965,-2.09437 5.90373,-2.76306 9.106464,-3.28263 7.21699,-1.17081 14.886478,-1.27256 21.96265,0.50502 2.35469,0.59151 6.4281,3.28263 6.4281,3.28263 l 8.30295,13.63552 15.26672,34.84635 4.28539,8.33282 4.82107,0.25251 9.3743,-5.0502 0.80352,-5.3027 -11.78484,-31.0587 c 0,0 -2.87538,-6.12709 -2.91279,-9.38706 -0.0218,-1.90229 0.0339,-4.28141 1.5736,-5.51101 3.491,-2.78783 13.6597,-1.26255 13.6597,-1.26255 l 5.89242,-1.76757 1.07135,-4.04016 -3.74972,-19.19073 c 0,0 -2.82248,-13.671706 -7.23161,-18.938239 -1.9177,-2.29062 -4.75403,-4.130263 -7.76728,-4.797686 -3.6761,-0.814244 -11.24916,1.26255 -11.24916,1.26255 0,0 -12.54919,5.563611 -19.28428,6.817764 -2.80415,0.522168 -6.10054,1.608236 -8.57079,0.252508 -1.56258,-0.857574 -1.9482,-2.909544 -2.52974,-4.52356 -1.28439,-3.564722 -1.71305,-7.378661 -2.02349,-11.132042 -0.985655,-11.917139 -0.64867,-23.955331 0.53567,-35.856382 0.872,-8.762408 4.38143,-17.217379 4.82107,-26.008503 0.16028,-3.204849 -0.80351,-9.5953712 -0.80351,-9.5953712 z"
     id="path3820"
     style="fill:none;stroke:#8ab8d8;stroke-width:1.45633924;stroke-linecap:butt;stroke-linejoin:miter;stroke-miterlimit:4;stroke-opacity:1;stroke-dasharray:none" />
  <path
     d="m 43.55979,121.72907 c 0,0 13.266704,-3.21323 20.012159,-4.28523 3.382271,-0.53752 6.376097,-1.22266 10.227034,-1.07131 3.311289,0.13015 6.439242,7.14206 6.439242,7.14206 l 28.029645,0 c 0,0 2.92917,-5.42845 5.68169,-5.71365 5.33944,-0.55323 11.90826,0.62483 17.80261,1.42841 4.97491,0.67824 14.77238,2.85683 14.77238,2.85683 l 3.40901,-2.49972 c 0,0 -0.89235,-9.20077 -1.51511,-13.5699 -0.20249,-1.4206 -1.55301,-2.8749 -3.03023,-3.21393 -9.60692,-2.20485 -20.91763,-2.49281 -31.43866,-2.856823 -11.10625,-0.384266 -22.237129,0.113273 -33.332557,0.714203 -8.2282,0.44565 -16.418059,1.38574 -24.620634,2.14262 -3.663563,0.33805 -7.715305,0.51792 -10.984593,1.07131 -1.321034,0.22361 -2.581383,1.5932 -2.65145,2.85682 -0.356145,6.42277 1.199464,14.99831 1.199464,14.99831 z"
     id="path3822"
     style="fill:none;stroke:#8ab8d8;stroke-width:1.45633924;stroke-linecap:butt;stroke-linejoin:miter;stroke-miterlimit:4;stroke-opacity:1;stroke-dasharray:none" />
  <path
     d="m 62.435611,181.36522 c 0,0 14.302182,-1.40876 21.479928,-1.74087 11.513473,-0.53273 17.755491,-0.76281 29.276461,-0.40174 4.81014,0.15075 19.69651,1.0713 19.69651,1.0713"
     id="path3846"
     style="fill:none;stroke:#8ab8d8;stroke-width:1.45633924;stroke-linecap:butt;stroke-linejoin:miter;stroke-miterlimit:4;stroke-opacity:1;stroke-dasharray:none" />
  <path
     d="m 64.625055,174.83537 c 0,0 13.022379,-1.34135 19.557839,-1.65757 10.483215,-0.50724 16.166676,-0.72632 26.656716,-0.38252 4.37971,0.14354 17.934,1.02004 17.934,1.02004"
     id="path3846-7"
     style="fill:none;stroke:#8ab8d8;stroke-width:1.45633924;stroke-linecap:butt;stroke-linejoin:miter;stroke-miterlimit:4;stroke-opacity:1;stroke-dasharray:none" />
  <path
     d="m 65.724735,169.52826 c 0,0 12.5759,-0.96727 18.887288,-1.1953 10.123789,-0.36578 15.612397,-0.52376 25.742767,-0.27584 4.22955,0.10351 17.31913,0.73557 17.31913,0.73557"
     id="path3846-9"
     style="fill:none;stroke:#8ab8d8;stroke-width:1.45633924;stroke-linecap:butt;stroke-linejoin:miter;stroke-miterlimit:4;stroke-opacity:1;stroke-dasharray:none" />
  <path
     d="m 66.937672,163.07284 c 0,0 11.679751,-1.03324 17.54139,-1.27683 9.402376,-0.39072 14.499867,-0.55947 23.908358,-0.29465 3.92816,0.11057 16.08498,0.78574 16.08498,0.78574"
     id="path3846-92"
     style="fill:none;stroke:#8ab8d8;stroke-width:1.45633924;stroke-linecap:butt;stroke-linejoin:miter;stroke-miterlimit:4;stroke-opacity:1;stroke-dasharray:none" />
  <path
     d="m 69.153469,156.08856 c 0,0 10.510992,-0.7728 15.786077,-0.95498 8.461508,-0.29224 13.048909,-0.41846 21.515924,-0.22038 3.53508,0.0827 14.4754,0.58768 14.4754,0.58768"
     id="path3846-1"
     style="fill:none;stroke:#8ab8d8;stroke-width:1.45633924;stroke-linecap:butt;stroke-linejoin:miter;stroke-miterlimit:4;stroke-opacity:1;stroke-dasharray:none" />
  <path
     d="m 72.99451,148.71775 c 0,0 9.063642,-0.80221 13.612353,-0.99133 7.296365,-0.30336 11.252088,-0.43438 18.553197,-0.22877 3.0483,0.0858 12.48216,0.61005 12.48216,0.61005"
     id="path3846-10"
     style="fill:none;stroke:#8ab8d8;stroke-width:1.45633924;stroke-linecap:butt;stroke-linejoin:miter;stroke-miterlimit:4;stroke-opacity:1;stroke-dasharray:none" />
  <path
     d="m 75.808256,141.58637 c 0,0 7.69697,-0.67951 11.559797,-0.8397 6.196174,-0.25695 9.555429,-0.36793 15.755627,-0.19377 2.58866,0.0727 10.60002,0.51673 10.60002,0.51673"
     id="path3846-10-8"
     style="fill:none;stroke:#8ab8d8;stroke-width:1.45633924;stroke-linecap:butt;stroke-linejoin:miter;stroke-miterlimit:4;stroke-opacity:1;stroke-dasharray:none" />
  <path
     d="m 44.222654,100.51122 c 0,0 19.405039,-2.39626 29.165986,-2.916338 10.147978,-0.540703 20.329697,-0.405696 30.49171,-0.208308 12.16419,0.236278 36.45748,1.666477 36.45748,1.666477 l 6.18672,0.416619"
     id="path3923"
     style="fill:none;stroke:#8ab8d8;stroke-width:0.72816962;stroke-linecap:butt;stroke-linejoin:miter;stroke-miterlimit:4;stroke-opacity:1;stroke-dasharray:none" />
  <path
     d="m 114.26529,34.476998 c 0.0101,0.002 0.0204,0.0041 0.0304,0.0061 0.0278,0.0056 0.0556,0.01119 0.0833,0.01683 0.10488,0.0213 0.20969,0.04296 0.31445,0.06482 0.38183,0.07968 0.76307,0.162135 1.14386,0.246592 0,0 1e-5,10e-7 1e-5,2e-6 1.25099,0.277458 2.49727,0.576273 3.73721,0.899518 0,0 1e-5,1e-6 1e-5,2e-6 0,0 0,0 0,0 2.87259,0.748864 5.78712,1.504546 8.3898,2.932345 0,1e-6 0,1e-6 0,2e-6 6.1778,3.389064 11.29616,8.421612 15.90872,13.748454 0,10e-7 0,2e-6 0,3e-6 3.24379,3.746107 5.90778,7.985615 7.95436,12.498591 0,0 0,0 0,0 0,10e-7 0,3e-6 0,4e-6 3.71303,8.187716 5.9292,16.980647 7.51245,25.830427 0,0 0,0 0,0 0.91843,5.133702 1.17802,10.362123 1.43549,15.570973 l 0.33214,9.42616 1.76764,16.24822 c -0.007,0.007 -0.0137,0.0149 -0.0204,0.0223 -0.0186,0.0203 -0.037,0.0406 -0.0555,0.0609 -0.0696,0.0767 -0.13886,0.15371 -0.20786,0.23095 0,0 0,0 0,1e-5 -1e-5,0 -1e-5,0 -1e-5,0 -0.25069,0.28064 -0.49825,0.56406 -0.7435,0.84947 0,1e-5 0,1e-5 0,1e-5 -0.80002,0.93104 -1.57577,1.88307 -2.32123,2.85834 0,0 0,0 0,1e-5 -0.90047,1.17806 -1.76064,2.38899 -2.52508,3.65955 -0.6768,1.12487 -1.31059,2.2961 -1.63882,3.56719 -1.23444,4.78037 -0.74039,9.83274 0.12552,14.69339 0,0 0,0 0,0 0.8833,4.9582 2.16069,9.86362 2.52593,14.88662 0.19276,2.65093 1.05718,5.33005 0.44191,7.91578 -0.29821,1.25323 -1.01793,2.3633 -1.71688,3.44541 l -1.37636,1.97049 c -8e-5,1e-4 -1.2e-4,1.5e-4 -1.2e-4,1.5e-4"
     id="path3925"
     style="fill:none;stroke:#8ab8d8;stroke-width:1.45633924;stroke-linecap:butt;stroke-linejoin:miter;stroke-miterlimit:4;stroke-opacity:1;stroke-dasharray:none" />
  <path
     d="m 100.34508,64.681918 c 0,0 7.31557,-16.085574 11.04772,-23.53902 1.23745,-2.471311 3.97718,-7.290847 3.97718,-7.290847 0,0 0.23898,-3.210056 0,-4.791128 -0.59516,-3.937555 -1.89882,-7.79113 -3.53527,-11.457045 -1.27926,-2.865737 -4.861,-8.1240858 -4.861,-8.1240858 l -1.76763,-2.0831003"
     id="path3927"
     style="fill:none;stroke:#8ab8d8;stroke-width:1.45633924;stroke-linecap:butt;stroke-linejoin:miter;stroke-miterlimit:4;stroke-opacity:1;stroke-dasharray:none" />
</svg>
